<svg width="24" height="24" viewBox="0 0 24 24" fill="none" xmlns="http://www.w3.org/2000/svg">
<path d="M12.026 2C7.13293 1.99937 2.96182 5.54799 2.1784 10.3779C1.39498 15.2079 4.2306 19.893 8.873 21.439C9.373 21.529 9.552 21.222 9.552 20.958C9.552 20.721 9.544 20.093 9.541 19.258C6.766 19.858 6.18 17.92 6.18 17.92C5.99732 17.317 5.60458 16.7993 5.073 16.461C4.173 15.842 5.142 15.856 5.142 15.856C5.78268 15.9438 6.34655 16.3235 6.669 16.884C6.94193 17.3803 7.40176 17.747 7.94631 17.9026C8.49085 18.0583 9.07502 17.99 9.569 17.713C9.61542 17.207 9.84054 16.7341 10.204 16.379C7.99 16.128 5.662 15.272 5.662 11.449C5.64971 10.4602 6.0169 9.5043 6.688 8.778C6.38435 7.91731 6.42011 6.97325 6.788 6.138C6.788 6.138 7.625 5.869 9.53 7.159C11.1638 6.71101 12.8882 6.71101 14.522 7.159C16.428 5.868 17.264 6.138 17.264 6.138C17.6336 6.97286 17.6694 7.91757 17.364 8.778C18.0376 9.50423 18.4044 10.4626 18.388 11.453C18.388 15.286 16.058 16.128 13.836 16.375C14.3153 16.8651 14.5611 17.5373 14.511 18.221C14.511 19.555 14.499 20.631 14.499 20.958C14.499 21.225 14.677 21.535 15.186 21.437C19.8265 19.8884 22.659 15.203 21.874 10.3743C21.089 5.54565 16.9181 1.99888 12.026 2Z" fill="#D9F561"/>
</svg>
