<svg width="24" height="24" viewBox="0 0 24 24" fill="none" xmlns="http://www.w3.org/2000/svg">
<path d="M12.002 21.0409C9.542 21.0409 9.252 21.0279 8.292 20.9859C7.54337 20.9613 6.80443 20.8091 6.107 20.5359C4.90031 20.0663 3.94614 19.1117 3.477 17.9049C3.21431 17.2049 3.07262 16.4654 3.058 15.7179C3.002 14.7599 3.002 14.4459 3.002 12.0049C3.002 9.53788 3.015 9.24988 3.058 8.29488C3.07294 7.5484 3.21462 6.80989 3.477 6.11088C3.94563 4.90241 4.90135 3.94706 6.11 3.47888C6.80864 3.21509 7.54734 3.07303 8.294 3.05888C9.249 3.00488 9.563 3.00488 12.002 3.00488C14.482 3.00488 14.767 3.01788 15.712 3.05888C16.4606 3.07315 17.2012 3.21519 17.902 3.47888C19.1103 3.94759 20.0658 4.90276 20.535 6.11088C20.8021 6.82008 20.9446 7.57013 20.956 8.32788C21.012 9.28588 21.012 9.59888 21.012 12.0389C21.012 14.4789 20.998 14.7989 20.956 15.7459C20.9411 16.4941 20.7991 17.2343 20.536 17.9349C20.0657 19.1426 19.1101 20.0975 17.902 20.5669C17.2022 20.8291 16.4631 20.9707 15.716 20.9859C14.761 21.0409 14.448 21.0409 12.002 21.0409ZM11.968 4.58788C9.522 4.58788 9.268 4.59988 8.313 4.64288C7.74298 4.65043 7.17848 4.75562 6.644 4.95388C5.85475 5.25589 5.23023 5.87787 4.925 6.66588C4.72521 7.20618 4.62001 7.77686 4.614 8.35288C4.561 9.32188 4.561 9.57588 4.561 12.0049C4.561 14.4049 4.57 14.6959 4.614 15.6589C4.62295 16.2291 4.72809 16.7937 4.925 17.3289C5.23067 18.1164 5.85509 18.7379 6.644 19.0399C7.17811 19.2395 7.74285 19.3447 8.313 19.3509C9.281 19.4069 9.536 19.4069 11.968 19.4069C14.421 19.4069 14.675 19.3949 15.622 19.3509C16.1924 19.3439 16.7573 19.2387 17.292 19.0399C18.0765 18.7353 18.6969 18.1152 19.002 17.3309C19.2014 16.7901 19.3066 16.2192 19.313 15.6429H19.324C19.367 14.6869 19.367 14.4319 19.367 11.9889C19.367 9.54588 19.356 9.28888 19.313 8.33388C19.304 7.76433 19.1989 7.20039 19.002 6.66588C18.6976 5.88046 18.0771 5.25918 17.292 4.95388C16.7574 4.75462 16.1924 4.6494 15.622 4.64288C14.655 4.58788 14.402 4.58788 11.968 4.58788ZM12.002 16.6239C10.132 16.6251 8.44542 15.4996 7.72886 13.7723C7.0123 12.0451 7.40691 10.0562 8.72863 8.73334C10.0504 7.41047 12.0389 7.01415 13.7668 7.72921C15.4947 8.44428 16.6216 10.1299 16.622 11.9999C16.6192 14.5509 14.5531 16.6189 12.002 16.6239ZM12.002 8.99788C10.3451 8.99788 9.002 10.341 9.002 11.9979C9.002 13.6547 10.3451 14.9979 12.002 14.9979C13.6589 14.9979 15.002 13.6547 15.002 11.9979C14.9982 10.3426 13.6573 9.00173 12.002 8.99788ZM16.802 8.28489C16.2074 8.28268 15.7269 7.79947 15.728 7.20489C15.7291 6.61031 16.2114 6.12889 16.806 6.12889C17.4006 6.12889 17.8829 6.6103 17.884 7.20488C17.8843 7.49174 17.7703 7.76691 17.5673 7.96956C17.3642 8.17222 17.0889 8.28568 16.802 8.28489Z" fill="#D9F561"/>
</svg>
