<?xml version="1.0" encoding="UTF-8"?>
<svg width="136px" height="146px" viewBox="0 0 136 146" version="1.1" xmlns="http://www.w3.org/2000/svg" xmlns:xlink="http://www.w3.org/1999/xlink">
    <title>Group</title>
    <g id="Page-1" stroke="none" stroke-width="1" fill="none" fill-rule="evenodd">
        <g id="6184214" transform="translate(-261.000000, -28.000000)">
            <g id="Group" transform="translate(329.016185, 101.038443) rotate(2.000000) translate(-329.016185, -101.038443) translate(263.516185, 30.538443)">
                <path d="M101.98756,83.5030042 C102.761688,83.9554969 103.547524,84.3873277 104.329227,84.8288008 C105.294131,85.3742714 106.00834,85.799215 106.745276,86.3130042 C107.535933,86.8646733 108.276313,87.4845263 108.945754,88.1787616 C108.631695,87.8536831 109.157881,88.4590728 109.162703,88.4638939 C109.312845,88.6588032 109.443703,88.8654209 109.575249,89.0727273 C109.675803,89.2325116 109.819058,89.5534577 109.9692,90.0589822 C109.93683,89.8516758 109.94234,89.8895557 109.986418,90.1753768 C110.02843,90.4460459 110.029808,90.7249797 110.03945,90.9990925 C110.053913,91.4419429 109.916857,91.7842395 109.809416,92.0432003 C109.599354,92.5494135 109.560097,92.5418376 109.117247,93.019813 C108.938178,93.2112787 108.560756,93.4702395 108.111019,93.7533057 C106.575161,94.7202763 104.276884,95.2134037 102.347075,95.6452346 C101.066734,95.9310557 100.477185,97.5757322 100.86907,98.705242 C101.336715,100.050323 102.654935,100.469068 103.931144,100.183936 C106.493891,99.610916 109.062149,98.9194356 111.268136,97.433166 C113.866698,95.6824258 115.219354,92.6540998 114.74069,89.5520802 C113.902511,84.1173474 108.24532,81.6165851 104.023433,79.1481929 C102.890479,78.4849503 101.342913,79.2039797 100.826369,80.3073179 C100.234754,81.5738841 100.857362,82.8418277 101.98756,83.5030042" id="Fill-238" fill="#3E6299"></path>
                <path d="M102.947644,95.5102444 C105.289999,98.2665238 102.995166,104.422352 100.068771,106.095955 C98.3297393,107.108382 95.5273153,106.467867 95.4508668,104.489847 C95.2387393,101.975311 96.3117736,98.5592322 97.5115334,96.5419552" id="Fill-239" fill="#3E6299"></path>
                <path d="M21.3260971,78.9305557 C20.5058251,79.293514 19.6759109,79.6337444 18.8494403,79.9843057 C17.8287491,80.4182027 17.0725285,80.7604993 16.2818717,81.1881978 C15.4340506,81.646889 14.6289305,82.1799626 13.8864844,82.7956831 C14.2342908,82.5071072 13.644053,83.0498228 13.6385432,83.0546439 C13.4670506,83.2302689 13.3134648,83.4217346 13.159879,83.6125116 C13.0414182,83.7598988 12.863727,84.062938 12.6584869,84.5484895 C12.7128962,84.3460042 12.703254,84.3831954 12.6274942,84.6614405 C12.5544893,84.9265998 12.5221192,85.2034675 12.4828619,85.4741366 C12.4181217,85.9128547 12.5159207,86.2689258 12.5944354,86.5389062 C12.745955,87.063715 12.7865898,87.0616488 13.1722761,87.5864577 C13.3272393,87.7958302 13.6750457,88.0961145 14.0896584,88.4273915 C15.5070555,89.5610336 17.7357712,90.3096782 19.6042834,90.9543253 C20.8453668,91.3834013 21.2455163,93.0831758 20.7289721,94.1617199 C20.1125628,95.4461929 18.7571511,95.7134184 17.5208888,95.2870974 C15.0387221,94.4296341 12.5634427,93.4543988 10.5385898,91.7298302 C8.15422215,89.6994675 7.15006038,86.5375287 7.97377607,83.5092027 C9.4173447,78.2032616 15.3197221,76.3533449 19.7916168,74.3739478 C20.9906878,73.8429405 22.4473422,74.7307077 22.8371609,75.8843228 C23.2848324,77.2101194 22.5224133,78.4009258 21.3260971,78.9305557" id="Fill-240" fill="#3E6299"></path>
                <path d="M19.0223104,90.7539062 C16.3858692,93.2284969 17.9747589,99.6040287 20.6945359,101.595134 C22.3082197,102.79696 25.1657418,102.475325 25.4632712,100.517967 C25.9563986,98.0440655 25.2738717,94.5281219 24.3089672,92.3889405" id="Fill-241" fill="#3E6299"></path>
                <path d="M49.5955236,122.664624 C50.1024256,126.218448 49.6210065,129.748855 49.2098373,133.286838 C48.8930236,136.000416 53.1004476,136.60374 53.4179501,133.875698 C53.8711315,129.985776 54.3697687,126.058664 53.8132785,122.152213 C53.4275922,119.444833 49.2077712,119.944159 49.5955236,122.664624" id="Fill-242" fill="#3E6299"></path>
                <path d="M65.5725775,122.334725 C64.4100089,126.149575 64.2371388,130.026411 64.0842418,133.983139 C64.0380971,135.139509 64.6586388,136.2091 65.8935236,136.38197 C66.9527834,136.531423 68.2468986,135.731124 68.2916658,134.572688 C68.4273447,131.058122 68.4383643,127.414764 69.4721413,124.020725 C69.8096168,122.913943 69.5182859,121.725891 68.3646707,121.227943 C67.3921903,120.807132 65.9107418,121.224499 65.5725775,122.334725" id="Fill-243" fill="#3E6299"></path>
                <path d="M45.6938937,138.428862 C51.8703839,141.358012 55.7134721,137.328967 53.6658913,131.180715 C49.444004,130.461686 37.2638937,134.732472 45.6938937,138.428862" id="Fill-244" fill="#3E6299"></path>
                <path d="M71.9005873,139.592119 C65.6256094,142.302943 61.9264648,138.140286 64.1896168,132.068482 C68.4335432,131.499595 80.4559354,136.196703 71.9005873,139.592119" id="Fill-245" fill="#3E6299"></path>
                <path d="M117.479063,108.77372 C117.115416,108.731019 117.047232,108.607048 117.06996,108.255798 C117.239386,105.635198 115.28685,103.254274 112.713082,102.911289 C110.037384,102.555217 107.556595,104.250171 106.971867,106.813607 C106.931921,106.994053 106.790043,107.194472 106.636457,107.299847 C105.809987,107.865291 105.18118,108.58432 104.896737,109.312303 C103.76034,112.117482 105.226636,115.030791 107.980161,115.773926 C108.303173,115.860705 108.417502,115.979166 108.344497,116.295291 C108.325212,116.38207 108.335543,116.477115 108.336232,116.568715 C108.350695,118.478551 109.684068,120.212073 111.465801,120.641149 C113.407318,121.109482 115.41633,120.272681 116.25382,118.610097 C116.422558,118.271933 116.606448,118.167936 116.974916,118.161737 C119.499095,118.115592 121.497087,116.173387 121.614859,113.680889 C121.734009,111.204921 119.939879,109.063673 117.479063,108.77372" id="Fill-246" fill="#EC9BA1"></path>
                <path d="M20.2330898,47.3311415 C20.2138055,46.9268596 19.9396927,46.4874527 19.6772883,46.1561758 C13.7253226,38.6001684 15.5669746,28.1336072 23.7497221,23.3476537 C24.4907908,22.9144454 24.4591094,22.378617 24.4832148,21.723639 C24.7649035,14.3501439 29.4620114,8.65094049 36.3196511,7.40228118 C38.7453422,6.96149687 41.1152467,7.23285471 43.3983717,8.19018314 C43.8935653,8.39680079 44.2640996,8.48289147 44.7338104,7.97530079 C47.469428,5.01653608 50.8345408,3.60946991 54.7217074,3.49514147 C55.2258545,3.48067824 55.8030065,3.26923951 56.2121094,2.95518069 C62.0979574,-1.59247372 69.9873079,-0.828677153 74.8724378,4.81336206 C75.3194207,5.32852873 75.627281,5.66462677 76.4324011,5.38844785 C82.6495261,3.25615373 88.8659623,5.57991353 92.5341143,11.3782934 C92.9907393,12.0987003 93.4797344,12.4086268 94.2944967,12.5449944 C100.762318,13.6256047 105.30033,18.6691415 106.144019,25.5343572 C106.218401,26.1514552 106.548989,26.887014 106.991151,27.2706341 C113.923862,33.2770091 114.07607,43.9322812 107.303832,50.2403179 C106.929166,50.5901905 106.590313,51.145992 106.501467,51.6563376" id="Fill-247" fill="#EC9BA1"></path>
                <path d="M107.181239,60.47409 C108.048345,56.1674895 108.60208,52.6467248 108.603457,52.6453474 C109.046308,49.8766709 109.082122,47.5487787 108.723984,47.4523572 C108.723984,47.4523572 108.723984,47.4523572 108.432654,47.5350042 C99.2133741,50.182465 87.0890506,49.6218425 77.0853128,49.3980067 C67.6208471,49.2216929 58.127455,48.4709822 48.7669869,47.1575827 C44.5829795,46.572166 40.4347859,45.8579577 36.3079427,45.1230876 C32.5757393,44.4336733 26.5955359,42.13884 22.8406045,42.7586929 C22.7552025,42.7724675 22.7552025,42.7717787 22.7552025,42.7717787 C22.6746217,42.8089699 22.0595898,42.4597861 21.3908373,42.0031611 C21.3908373,42.0031611 21.3908373,42.0017836 20.6883373,41.7421341 C17.7495457,40.6615238 17.7543668,40.6752983 17.7529893,40.6725434 C17.6972025,42.2538572 17.7357712,44.9123376 17.8370138,46.5859405 C17.8377025,46.5880067 17.8349476,46.5838743 17.9754476,48.1052689 C19.8770187,68.658215 22.7675996,90.6774577 27.5280702,113.960512 C27.6334452,114.475678 27.7952957,114.812465 28.3042638,115.134789 C29.1307344,115.655465 29.8972859,116.306311 30.7313324,116.790485 C47.742852,127.278396 70.8137785,128.209553 88.9479207,119.099781 C89.697254,118.746465 90.0877614,118.323588 90.3763373,117.656901 C91.8564084,114.233247 93.0899158,110.81648 94.2400873,107.42244 C99.762977,91.1244405 104.161867,75.5330728 107.181239,60.47409" id="Fill-248" fill="#E1597B"></path>
                <path d="M46.5093447,46.8249282 C46.8461315,71.9868253 47.7642025,97.756867 48.7008692,123.930502 C50.9681535,124.420186 53.2657418,124.788654 55.5826143,125.023509 C55.513053,115.182999 55.4221413,105.356953 55.3835726,95.5598327 C55.2816413,79.707438 55.1989942,63.9301145 55.2410065,48.2650532 C55.2410065,48.1672542 55.2403177,48.0680777 55.2403177,47.9702787 C53.0777197,47.7285361 50.9178766,47.4592444 48.7669869,47.1575827 C48.0135212,47.0522077 47.2614329,46.9371905 46.5093447,46.8249282" id="Fill-249" fill="#F5D15A"></path>
                <path d="M35.7094403,45.0025606 C33.3960114,44.5094331 30.3924795,43.5465949 27.5921217,43.0204086 C28.0397932,47.8545728 28.7367834,55.1288915 29.1155824,58.6159086 C29.8490751,65.6188694 30.6528177,72.7354699 31.5130359,79.9567567 C32.3980481,87.3626219 33.3395359,94.8821268 34.297553,102.4891 C35.0193373,108.234448 35.7473202,114.028695 36.4932099,119.869088 C37.985678,120.557124 39.5091388,121.187308 41.0635922,121.746553 C38.8328104,95.3366856 36.7659452,69.7326268 35.7094403,45.0025606" id="Fill-250" fill="#F5D15A"></path>
                <path d="M70.2428251,124.789342 C74.2822001,99.2637983 78.2582123,74.1273841 81.6095506,49.507514 C80.0681829,49.4703228 78.5529869,49.4317542 77.0853128,49.3980067 C75.6775579,49.3711464 74.2684256,49.3284454 72.8592932,49.2774797 C71.0265947,64.6415679 69.0616609,80.0979454 67.0698668,95.626639 C65.8253398,105.507095 64.5264035,115.410967 63.2488177,125.330681 C65.5870408,125.28247 67.9238864,125.097203 70.2428251,124.789342" id="Fill-251" fill="#F5D15A"></path>
                <path d="M97.7505212,62.2268964 C98.4550873,59.2819062 99.7540236,53.5641072 100.774026,49.0074993 C98.1389623,49.3174258 95.4005898,49.4806537 92.6408668,49.5536586 C88.5160898,73.4062885 83.3506486,97.9627959 77.930379,123.262438 C79.5640359,122.827164 81.177031,122.320262 82.765232,121.746553 C84.2149991,116.153414 85.6434158,110.599531 87.0615016,105.09386 C88.9727148,97.6693988 90.8584452,90.3289626 92.6718594,83.09459 C94.439129,76.0392861 96.1375261,69.0817812 97.7505212,62.2268964" id="Fill-252" fill="#F5D15A"></path>
                <path d="M60.4436388,20.0934258 C60.4057589,19.9074699 60.3513496,19.7222027 60.3031388,19.5362469 C60.2390873,19.3544233 60.1626388,19.1739773 60.0910114,18.9907763 C60.0000996,18.8144626 59.898857,18.6409037 59.8017467,18.4652787 C59.6777761,18.2862101 59.5338324,18.1105851 59.391955,17.9356488 L59.2053104,17.7462493 L59.1123324,17.6525827 L59.0648104,17.6057493 L59.0413937,17.5816439 L59.0303741,17.5699356 L59.0241756,17.5644258 L59.0214207,17.5616709 L58.9766535,17.523791 L58.471129,17.1463694 C58.2906829,17.0403057 58.1109256,16.9335532 57.9235922,16.8323106 L57.3485065,16.5795483 L56.7568913,16.3825728 L56.152879,16.2372518 L55.5440457,16.1415189 C55.1370089,16.0981292 54.7292834,16.0733351 54.3222467,16.0774675 C53.5067957,16.083666 52.6975432,16.2000606 51.9055089,16.412188 C51.6775408,16.4734846 51.4543937,16.5471782 51.2291805,16.6277591 C51.192678,16.5258277 51.1534207,16.4238964 51.1169182,16.321965 C51.0156756,16.1091488 50.8944599,15.9025312 50.7759991,15.6966023 C50.6361878,15.5078915 50.4943104,15.3164258 50.3414133,15.1366684 C50.1761192,14.9727518 50.0128913,14.8005704 49.8358888,14.6504282 C49.6533766,14.510617 49.4743079,14.3590974 49.2807761,14.2365042 C49.0844893,14.1221758 48.8916462,13.9933841 48.6884721,13.8935189 C48.2855677,13.6896562 47.8675114,13.5236733 47.4405016,13.3928155 C47.0148692,13.2654013 46.5802834,13.1689797 46.1401878,13.1097493 C45.6952712,13.0560287 45.2613741,13.0319233 44.7957957,13.0450091 L44.4273275,13.0691145 C44.3088668,13.0794454 44.1683668,13.0870214 44.089852,13.1021733 L43.811607,13.1462518 L43.6724844,13.168291 L43.6552663,13.1703572 L43.5822614,13.1834429 L43.5719305,13.1861978 L43.5326731,13.1965287 L43.4541584,13.2151243 L42.8274182,13.3762861 C42.617357,13.4396488 42.4086731,13.5243621 42.200678,13.6001219 C41.786754,13.7674822 41.3714525,13.9727224 40.9898986,14.2454577 C40.6055898,14.5078621 40.2577834,14.8356954 39.9726511,15.1931439 C39.8211315,15.3687689 39.7150677,15.5629895 39.5883422,15.7496341 C39.4781462,15.9404111 39.3879231,16.1332542 39.2915016,16.3260974 C39.2164305,16.5182518 39.1379158,16.7124724 39.0717981,16.9046268 C39.0167001,17.0933376 38.9512712,17.285492 38.9071927,17.4721366 C38.816281,17.8468032 38.7453422,18.2125165 38.6861119,18.5706537 C38.6117295,18.9942199 38.5518104,19.4033228 38.4891364,19.8055385 C38.3741192,19.7972738 38.2570359,19.7924527 38.1371976,19.8027836 C37.9705261,19.8096709 37.8079869,19.8076047 37.6392491,19.8399748 C36.974629,19.9253768 36.3162074,20.1905361 35.807928,20.587242 C35.2975824,20.9825704 34.9304918,21.477764 34.6770408,21.9887983 C34.425656,22.5025876 34.2810236,23.0363498 34.20733,23.5694233 C34.1742712,23.8366488 34.1632516,24.1031856 34.1639102,24.3697224 C34.172205,24.6348817 34.1935555,24.8986635 34.2335016,25.1596905 C34.3189035,25.6824331 34.4621584,26.2003547 34.719053,26.676264 C34.8444011,26.9152518 35.0034967,27.1411537 35.1777442,27.3525925 C35.3685212,27.5550777 35.5723839,27.7479209 35.8175702,27.8897983 C35.9387859,27.9621145 36.0641339,28.0254773 36.2005016,28.0681782 C36.3286045,28.123965 36.4697932,28.1446268 36.6047834,28.1714871 C36.7390849,28.2024797 36.8850947,28.1893939 37.0166413,28.1997248 C37.1495653,28.1907714 37.2790457,28.166666 37.4105922,28.151514 C37.2797344,28.1342959 37.1454329,28.1267199 37.01733,28.103992 C36.8933594,28.0654233 36.7687001,28.0523376 36.6564378,27.9979282 C36.5414207,27.9469626 36.4270922,27.9042616 36.3292932,27.8305679 C36.224607,27.7713376 36.1336952,27.6955777 36.048982,27.6136194 C35.8719795,27.4614111 35.7397442,27.2685679 35.619906,27.077791 C35.5131535,26.874617 35.4236192,26.6666219 35.3623226,26.4476072 C35.2397295,26.0123327 35.1804991,25.55984 35.1922074,25.1087248 C35.1977172,24.8842003 35.2218226,24.6596758 35.2548815,24.4392836 L35.3189329,24.1100728 L35.4043349,23.7891268 C35.4690751,23.5769993 35.54208,23.3717591 35.6336805,23.1747836 C35.7245922,22.9791856 35.8285898,22.7918523 35.9470506,22.6196709 C36.1791511,22.273242 36.4697932,21.984666 36.7934942,21.7959552 C37.1171952,21.6024233 37.4691339,21.5025581 37.8458668,21.492916 C37.9374672,21.4791415 38.0380212,21.4984258 38.1330653,21.5018694 C38.2287981,21.5018694 38.3272859,21.5177101 38.4278398,21.5369944 C38.6241266,21.5583449 38.8300555,21.6306611 39.0297859,21.6816268 L39.995379,21.9247469 L40.2419427,21.0238939 C40.339053,20.6692003 40.4327197,20.3165728 40.514678,19.9694552 L40.7502221,18.9522077 C40.830803,18.6223081 40.916205,18.3048057 41.0119378,18.0024552 C41.0594599,17.8516243 41.1152467,17.711813 41.1648349,17.566492 C41.2199329,17.4266807 41.2839844,17.297889 41.3404599,17.1635876 C41.4134648,17.0437493 41.4761388,16.91909 41.5498324,16.8054503 C41.6345457,16.7035189 41.6992859,16.5836807 41.7915751,16.4934577 C41.9665114,16.3033694 42.1510898,16.1304993 42.3776805,15.9886219 C42.594629,15.8412346 42.8535898,15.7234626 43.1277025,15.6187763 C43.2723349,15.5740091 43.4080138,15.5195998 43.5567785,15.478965 L44.0202908,15.3687689 L44.0760775,15.3556831 L44.1043153,15.3481072 L44.2145114,15.3322665 L44.4920677,15.2909429 C44.5974427,15.2723474 44.6477197,15.2792346 44.7159035,15.2751023 L44.9115016,15.2661488 C45.0464918,15.2599503 45.2124746,15.2737248 45.3612393,15.2737248 C45.5148251,15.2813008 45.6684109,15.3067836 45.8213079,15.3191807 C45.9748937,15.3391537 46.1250359,15.3742787 46.2786217,15.3990728 C46.4294525,15.4273106 46.5754623,15.4748327 46.724227,15.5092689 C47.0155579,15.5981145 47.2965579,15.7076219 47.5589623,15.8364135 C47.6911976,15.8983988 47.8069035,15.9789797 47.9329403,16.0471635 C48.0514011,16.1215459 48.1533324,16.209014 48.269727,16.2854626 C48.3723471,16.3701758 48.4598153,16.4638425 48.5603692,16.5499331 L48.8007344,16.8364429 L48.9825579,17.1470581 C49.0183717,17.2593204 49.0734697,17.3660728 49.107906,17.4797126 C49.1258128,17.5967959 49.1636927,17.711813 49.1822883,17.83234 C49.1850432,17.9563106 49.1919305,18.0816586 49.2022614,18.2063179 L49.3840849,20.3324135 L51.0439133,19.0920189 C51.2525971,18.9343008 51.4826315,18.780715 51.747102,18.6484797 C52.0088177,18.519688 52.289129,18.3977836 52.5811486,18.2986072 C53.167254,18.0974993 53.799504,17.9762836 54.4345089,17.9142983 C54.7527001,17.8853719 55.07158,17.8798621 55.3890824,17.887438 L55.8601707,17.9218743 L56.3257491,17.9873032 L56.7761756,18.0899233 L57.2100726,18.2297346 L57.6191756,18.4074258 L58.0007295,18.6264405 L58.3726413,18.9198376 C58.4566658,19.0135042 58.5434452,19.0995949 58.6378006,19.1918841 L58.9022712,19.5424454 L59.1226633,19.9288204 L59.3010432,20.3434331 L59.4353447,20.7780189 L59.5207467,21.2291341 L59.5517393,21.688514 L59.5290114,22.1520263 L59.4525628,22.6120949 L59.3210163,23.0638988 L59.1219746,23.4977959 C59.0338177,23.6307199 58.9491045,23.768465 58.8554378,23.9041439 C58.744553,24.0232934 58.6412442,24.1555287 58.5227834,24.2746782 C58.3939918,24.380742 58.2638226,24.4957591 58.1247001,24.5997567 L57.6694525,24.8718032 L58.1949501,24.7127077 C58.3623104,24.639014 58.5241609,24.5529233 58.6915212,24.4688988 C58.8464844,24.3697224 58.9959378,24.2581488 59.1474574,24.1486415 C59.2824476,24.0232934 59.4091731,23.888992 59.5414084,23.7560679 L59.8726854,23.3090851 L60.1378447,22.8214675 C60.2053398,22.652041 60.2680138,22.4784822 60.3306878,22.3035459 L60.4553471,21.7642738 L60.515955,21.2132934 L60.5125114,20.6540483 L60.4436388,20.0934258" id="Fill-253" fill="#E1597B"></path>
                <path d="M101.796095,32.358938 L101.760281,32.0255949 L101.740308,31.8582346 L101.731354,31.7755876 L101.725156,31.7349527 L101.723779,31.714291 L101.722401,31.7032714 L101.722401,31.6984503 L101.710004,31.6412861 L101.505453,30.9050385 C101.40972,30.6701831 101.311921,30.4332616 101.205857,30.2011611 L100.822237,29.5392959 L100.375943,28.9194429 L99.8745506,28.3443572 L99.3304574,27.8105949 C99.1396805,27.6418572 98.9420163,27.4813841 98.7464182,27.3174675 C98.5453104,27.1590606 98.3338717,27.015117 98.1286315,26.8642861 C97.7064427,26.5757101 97.2649697,26.3112395 96.8021462,26.0825827 C96.3400114,25.8518596 95.8620359,25.6459307 95.3661535,25.4737493 C94.9570506,25.3277395 94.5327957,25.2120336 94.0982099,25.1163008 C94.2001413,24.8835116 94.283477,24.6397027 94.3723226,24.4000263 C94.4460163,24.1231586 94.4887172,23.8366488 94.5417491,23.5535827 C94.5548349,23.2698277 94.5686094,22.9840067 94.5637883,22.7016292 C94.532107,22.4226954 94.509379,22.1403179 94.4577246,21.8668939 C94.3881633,21.5996684 94.3309991,21.3241782 94.2387099,21.0659062 C94.1360898,20.8117665 94.0479329,20.5493621 93.927406,20.3055532 C93.7972369,20.0672542 93.6835971,19.8179356 93.5362099,19.5892787 C93.385379,19.3647542 93.2476339,19.1292101 93.0816511,18.9157052 C92.9108471,18.7049552 92.7524403,18.484563 92.5678619,18.2855214 C92.3798398,18.0892346 92.2000824,17.8839944 91.9975971,17.7007934 C91.7889133,17.5217248 91.5912491,17.3337027 91.3729231,17.1656537 C91.1456437,17.0010483 90.941781,16.8350655 90.6910849,16.6766586 L90.3060873,16.4418032 C90.1793619,16.3667322 90.0395506,16.2785753 89.9383079,16.2344969 L89.6084084,16.0726464 L89.4424256,15.990688 L89.4224525,15.9803572 L89.3597785,15.9528081 L89.3528913,15.9500532 L89.3411829,15.9452322 L89.2936609,15.9266366 L89.1958619,15.8894454 L88.4258668,15.5981145 C88.1613962,15.5099577 87.8810849,15.4431513 87.6104158,15.3680802 C87.3425016,15.2813008 87.0408398,15.2585728 86.7550187,15.2069184 C86.4705751,15.1497542 86.1668471,15.1511317 85.868629,15.1387346 C85.2728815,15.1194503 84.6599158,15.1931439 84.0827638,15.3425974 C83.788678,15.4066488 83.5207638,15.5251096 83.2432074,15.6180876 C82.975982,15.7269062 82.7252859,15.8563866 82.46908,15.9769135 C82.2342246,16.1153474 81.9911045,16.2510263 81.7652025,16.3942812 C81.5496315,16.5451121 81.3237295,16.6918106 81.1184893,16.8460851 C80.7059427,17.1553228 80.318879,17.4748915 79.9462785,17.7923939 C79.4338668,18.2269797 78.9496927,18.6629429 78.4682736,19.0858204 C78.4379697,19.0589601 78.4076658,19.0314111 78.3759844,19.0052395 C78.2299746,18.8757591 78.0757001,18.7497224 77.9007638,18.6415925 C77.7292712,18.5313964 77.5708643,18.409492 77.3773324,18.3234013 C76.6521045,17.9315165 75.787754,17.7166341 74.9564623,17.7407395 C74.1231045,17.7634675 73.3434672,17.9873032 72.6568079,18.3096268 C72.3110677,18.4694111 71.9908104,18.660188 71.6850163,18.8640508 C71.3799109,19.0706684 71.0989109,19.2979478 70.8296192,19.5348694 L70.4480653,19.9067812 L70.097504,20.3021096 C69.8764231,20.5748449 69.6670506,20.85309 69.4824721,21.1464871 C69.1160702,21.7332812 68.817852,22.3600214 68.6635775,23.0287738 C68.6188104,23.1933792 68.602281,23.366938 68.571977,23.5349871 C68.5540702,23.7051023 68.5540702,23.8772836 68.5430506,24.0473988 C68.5602687,24.3917616 68.5988373,24.7361243 68.7255628,25.0618915 L68.8233619,25.3022567 C68.8619305,25.3793939 68.9115187,25.4530876 68.9555971,25.5274699 C69.036178,25.680367 69.1622148,25.8084699 69.2765432,25.938639 C69.3846731,26.0708743 69.5423913,26.1672959 69.6704942,26.277492 C69.8137491,26.3711586 69.9673349,26.4469184 70.1154109,26.5330091 C69.9886854,26.422813 69.8523177,26.3188155 69.733857,26.2031096 C69.6312369,26.0736292 69.507955,25.9703204 69.430129,25.8298204 C69.3481707,25.692764 69.2586364,25.5639724 69.2159354,25.4138302 C69.1876976,25.3422027 69.156705,25.2719527 69.1353545,25.1996366 L69.0905873,24.9764895 C69.0265359,24.6810263 69.0444427,24.3772983 69.0768128,24.0811464 C69.1105604,23.9337591 69.1346658,23.7856831 69.1753006,23.6417395 C69.226955,23.4977959 69.2627687,23.3524748 69.3268202,23.2133523 C69.5616756,22.6534184 69.8853766,22.1244773 70.2827712,21.6492567 C70.4804354,21.4116464 70.6966952,21.1884993 70.9212197,20.973617 L71.2724697,20.6678228 L71.6409378,20.3840679 C71.8923226,20.2029331 72.1512834,20.0348841 72.4198864,19.8881856 C72.6905555,19.7421758 72.9674231,19.6140728 73.2504893,19.5135189 C73.8159329,19.3096562 74.4020383,19.2111684 74.95233,19.2483596 C75.5019329,19.2814184 76.0157221,19.4425802 76.4661486,19.7304675 C76.5852981,19.7876317 76.6851633,19.8854307 76.793982,19.9646341 C76.904178,20.0397052 77.0040432,20.135438 77.0990873,20.235992 C77.3043275,20.4171268 77.4682442,20.6540483 77.6486903,20.868242 L78.2657883,21.6024233 L79.0406045,21.0356023 C79.4421315,20.7415165 79.8388373,20.4446758 80.2203913,20.1464577 L81.3368153,19.2552469 C81.7045947,18.9666709 82.0709967,18.6925581 82.4387761,18.4404846 C82.6226658,18.3123817 82.8093104,18.2056292 82.9932001,18.0878572 C83.1777785,17.9797273 83.3664893,17.887438 83.550379,17.7848179 C83.741156,17.7097469 83.9271119,17.6209013 84.1151339,17.5527175 C84.3065996,17.5038179 84.4904893,17.4225483 84.6812663,17.3943106 C85.0621315,17.3185508 85.4402418,17.2675851 85.8341927,17.2896243 C86.0325457,17.3040876 86.2260775,17.2958228 86.4271854,17.3440336 C86.6282932,17.3874233 86.8273349,17.3936219 87.0298202,17.4673155 C87.2323055,17.5286121 87.4361682,17.5761341 87.6379648,17.6463841 L88.2454207,17.8860606 L88.3218692,17.9156758 L88.3528619,17.9273841 L88.5057589,18.0052101 L88.8329035,18.1711929 C88.9568741,18.2276684 89.0154158,18.2793228 89.0980628,18.3302885 L89.3356731,18.4811194 C89.49408,18.5844282 89.6641952,18.7276831 89.8281119,18.8461439 C89.9927172,18.9756243 90.1394158,19.1230116 90.2957565,19.2586905 C90.4472761,19.4012567 90.5822663,19.5569086 90.7296535,19.7036072 C90.8701535,19.8537493 90.9886143,20.0204209 91.1201609,20.1767616 C91.2475751,20.3365459 91.3467516,20.5107934 91.4631462,20.6760876 C91.5747197,20.8434478 91.651857,21.0225165 91.7510334,21.1946978 C91.8419452,21.3696341 91.8956658,21.5521464 91.9748692,21.7277714 C92.0396094,21.90684 92.0747344,22.0879748 92.1325873,22.2670434 C92.171156,22.4468008 92.1828643,22.6251807 92.2166119,22.8042493 L92.2166119,23.3325018 C92.1807981,23.5012395 92.1622025,23.6741096 92.1263888,23.8428474 C92.0609599,24.0033204 92.0217025,24.1720581 91.9500751,24.3311537 C91.8591633,24.4819846 91.789602,24.6445238 91.6959354,24.7967322 C91.5809182,24.9406758 91.4714109,25.088063 91.3625922,25.2382052 L90.1511241,26.9035434 L92.2469158,26.9689724 C92.4438913,26.9744822 92.6360457,26.9634626 92.8371535,26.9779258 C93.0382614,27.0020312 93.2400579,27.0020312 93.4446094,27.0440434 C93.8516462,27.1067175 94.2662589,27.2017616 94.6739844,27.3271096 C95.4915016,27.5743621 96.2766486,27.9435189 97.0177172,28.3705287 C97.1960971,28.4862346 97.3834305,28.5916096 97.5583668,28.7114478 L98.0707785,29.087492 L98.5501315,29.49384 L98.9909158,29.9311807 L99.3821119,30.399514 L99.7209648,30.8960851 C99.8118766,31.0689552 99.9020996,31.2418253 100.001276,31.4146954 L100.214092,31.9560336 L100.349771,32.5566023 C100.35597,32.7294724 100.373188,32.900965 100.384207,33.0814111 L100.342884,33.6654503 L100.221668,34.2494895 L100.029514,34.825264 L99.7739967,35.3865753 L99.4530506,35.9224037 L99.0673643,36.4258621 L98.6245138,36.8886856 L98.1258766,37.3046758 L97.5776511,37.6683228 L96.9763937,37.9596537 C96.764955,38.0271488 96.5507614,38.1022199 96.3310579,38.1690263 C96.1079109,38.2034626 95.8806315,38.2571831 95.6512859,38.2881758 C95.4205628,38.2943743 95.1850187,38.3095263 94.9487859,38.3088376 L94.2380212,38.2296341 L94.930879,38.4369405 C95.169178,38.4775753 95.4129869,38.5023694 95.6588619,38.5368057 C95.9054256,38.5430042 96.1540555,38.5312959 96.4054403,38.5250974 C96.6485604,38.4913498 96.8937467,38.443139 97.1423766,38.3997493 L97.8572736,38.1738474 L98.5356682,37.8584111 C98.7464182,37.7309969 98.9564795,37.5987616 99.1644746,37.4617052 L99.7402491,36.9968155 L100.258859,36.4726954 L100.716173,35.8976096 L101.107369,35.2750018 C101.218254,35.0580532 101.313987,34.8321513 101.419362,34.6076268 C101.499943,34.3755263 101.570193,34.1392934 101.645264,33.9030606 C101.695541,33.6613179 101.734798,33.4133768 101.77681,33.166813 C101.794029,32.9030312 101.795406,32.6296072 101.796095,32.358938 L101.796095,32.358938 Z" id="Fill-254" fill="#E1597B"></path>
                <path d="M108.723984,47.4523572 C108.723984,47.4523572 108.723984,47.4523572 108.432654,47.5350042 C99.2133741,50.182465 87.0890506,49.6218425 77.0853128,49.3980067 C67.6208471,49.2216929 58.127455,48.4709822 48.7669869,47.1575827 C44.5829795,46.572166 40.4347859,45.8579577 36.3079427,45.1230876 C32.5757393,44.4336733 26.5955359,42.13884 22.8406045,42.7586929 C22.7552025,42.7724675 22.7552025,42.7717787 22.7552025,42.7717787 C22.6746217,42.8089699 22.0595898,42.4597861 21.3908373,42.0031611 C21.3908373,42.0031611 21.3908373,42.0017836 20.6883373,41.7421341 C17.7495457,40.6615238 17.7543668,40.6752983 17.7529893,40.6725434 C17.6972025,42.2538572 17.7357712,44.9123376 17.8370138,46.5859405 C17.8370138,46.5866292 17.8370138,46.5866292 17.8439011,46.6678988 C48.4295114,51.7093694 77.6507565,53.554465 108.641337,52.3987836 C109.046997,49.7403032 109.070413,47.5453351 108.723984,47.4523572" id="Fill-255" fill="#214070"></path>
                <path d="M113.053313,45.6540949 C113.23307,47.8146268 111.332188,49.6597224 108.847266,49.7513228 C77.629406,50.9262885 48.2111854,49.058465 17.3934746,43.9446782 C14.9402344,43.5390189 13.2886707,41.4700876 13.7384084,39.348813 C14.1874574,37.2296047 16.5077736,35.8576635 18.8893864,36.2550581 C48.9563864,41.2779331 77.875281,43.1133866 108.334166,41.9329111 C110.749526,41.8413106 112.87631,43.4949405 113.053313,45.6540949" id="Fill-256" fill="#E1597B"></path>
                <path d="M12.9704795,51.8216317 C12.605455,51.7789307 12.5372712,51.6549601 12.5606878,51.3043988 C12.7294256,48.6831096 10.7782663,46.3028743 8.20312166,45.959889 C5.52811185,45.6038179 3.04594519,47.2980827 2.4625947,49.8615189 C2.42127117,50.041965 2.28145989,50.2423841 2.12718538,50.3484478 C1.30071479,50.9138915 0.671908421,51.6322322 0.387464794,52.3609037 C-0.749620991,55.1660827 0.716675578,58.0793915 3.47088881,58.8218376 C3.79321234,58.9093057 3.9082295,59.0270777 3.8352246,59.3438915 C3.81456283,59.4306709 3.82764862,59.5250263 3.82833734,59.6166268 C3.8407344,61.5264626 5.17341823,63.2606733 6.95721724,63.6897493 C8.89804568,64.1580827 10.9070579,63.3205925 11.7431707,61.6580091 C11.9132859,61.3198449 12.0964869,61.2165361 12.4656437,61.2096488 C14.9891339,61.1635042 16.9871266,59.2219871 17.1055873,56.7294895 C17.2233594,54.2535214 15.430607,52.1122738 12.9704795,51.8216317" id="Fill-257" fill="#EC9BA1"></path>
                <path d="M126.0351,63.5644013 C125.671453,63.5217003 125.603269,63.397041 125.625997,63.0464797 C125.795423,60.4258792 123.842886,58.0449552 121.269119,57.7019699 C118.593421,57.3452101 116.112631,59.0401635 115.529281,61.6035998 C115.487269,61.7840459 115.34608,61.984465 115.193183,62.0905287 C114.365335,62.6559724 113.737906,63.374313 113.452774,64.1029846 C112.316377,66.9081635 113.781984,69.8214724 116.536198,70.5639184 C116.858521,70.6506978 116.973538,70.7691586 116.900533,71.0859724 C116.88056,71.1727518 116.892957,71.2664184 116.892957,71.3587077 C116.906043,73.2692322 118.238727,75.0027542 120.022526,75.4318302 C121.963354,75.8994748 123.972367,75.0619846 124.808479,73.40009 C124.978595,73.0612371 125.161107,72.958617 125.531641,72.9524184 C128.054443,72.9062738 130.053124,70.9626905 130.171585,68.4715704 C130.288668,65.9949135 128.495916,63.8543547 126.0351,63.5644013" id="Fill-258" fill="#EC9BA1"></path>
                <path d="M100.222357,85.1635214 L100.941386,64.1222689 C100.941386,64.1222689 63.248129,61.5395483 63.2488177,61.5340385 L25.4859991,59.693764 L23.74008,80.6744086 L23.7710726,80.6771635 C23.7214844,81.3769086 23.6643202,82.0787199 23.6167981,82.7791537 C23.4818079,84.7743915 24.3089672,85.6173915 26.2126045,85.7220777 C34.3065065,86.1669944 42.4100506,86.5065361 50.490178,87.1374086 C53.8387614,87.3991243 55.8463962,85.9362714 57.3808766,83.2984527 C58.2259427,81.8459307 59.3320359,80.2136513 60.984977,79.6082616 C61.4319599,79.4443449 62.1585653,79.4650067 62.6289648,79.5201047 C63.0167172,79.5676268 63.353504,79.7184577 63.6730726,79.9395385 C64.4444452,80.4726121 65.0863373,81.1640925 65.5601805,81.9733449 C65.9107418,82.5690925 66.2303104,83.2034086 66.5051119,83.8384135 C67.7220898,86.6380827 69.5451462,88.3247714 72.9013055,88.4563179 C80.9993398,88.7738204 89.0863545,89.3833425 97.1775016,89.8868008 C99.0811388,90.0052616 99.9998986,89.2648817 100.099764,87.266889 C100.1342,86.5664552 100.16106,85.8639552 100.190676,85.1628327 L100.222357,85.1635214" id="Fill-259" fill="#FFFFFE"></path>
                <path d="M96.7318962,72.9110949 C96.5411192,75.417367 96.5803766,77.9697836 96.0962025,80.4182027 C95.598254,82.9306733 93.7931045,84.4596439 91.1236045,84.386639 C85.326602,84.226166 79.5275334,83.9871782 73.735352,83.6731194 C70.6250677,83.5064478 69.2779207,81.6062542 69.3102908,78.591014 C69.324754,77.2548866 69.2861854,75.9201366 69.3054697,74.5860753 C69.3839844,68.7629013 71.0486339,67.0507297 76.899357,67.2401292 C81.6047295,67.3916488 86.3300751,67.6189282 90.9934354,68.2243179 C93.5155481,68.5493964 95.9729207,69.6878596 96.7318962,72.9110949" id="Fill-260" fill="#E1597B"></path>
                <path d="M56.3588079,70.5584086 C56.1852491,73.1769429 56.2472344,75.8457542 55.77408,78.4002371 C55.2864623,81.0249699 53.4627172,82.6083498 50.7415628,82.5084846 C44.8364305,82.2929135 38.9285432,81.9926292 33.0268545,81.6172738 C29.8566511,81.4154773 28.4674918,79.4174846 28.4757565,76.2658768 C28.4792001,74.8698302 28.4303006,73.4730949 28.4371878,72.0770483 C28.4674918,65.9907812 30.1486707,64.2152469 36.1095898,64.4611219 C40.9038079,64.6594748 45.7186878,64.9370312 50.4743373,65.6085385 C53.0446609,65.9714969 55.5578202,67.1815876 56.3588079,70.5584086" id="Fill-261" fill="#529ECA"></path>
                <path d="M36.2631756,65.4535753 C34.2534746,65.39159 32.220357,65.9542787 31.2575187,67.8772003 C30.3387589,69.7105876 30.4978545,71.8112003 30.491656,73.8036831 C30.48408,75.9883204 33.8801854,76.1983817 33.8870726,74.0027248 C33.891205,72.7437346 33.8402393,71.4819895 34.0075996,70.2305753 C34.1673839,69.0239282 34.9497761,68.8152444 36.0627565,68.8496807 C38.2522148,68.9178645 38.4560775,65.5217591 36.2631756,65.4535753" id="Fill-262" fill="#FFFFFE"></path>
                <path d="M40.5911266,65.707715 C38.4009795,65.5789233 38.2026266,68.9750287 40.3927736,69.1031317 C42.5829207,69.2312346 42.7812736,65.8358179 40.5911266,65.707715" id="Fill-263" fill="#FFFFFE"></path>
                <path d="M75.2236878,68.736041 C73.9426584,68.9288841 72.5934452,69.2250361 71.6636658,70.2002714 C70.4728594,71.453063 70.4067418,73.2892052 70.3178962,74.918041 C70.1973692,77.1068106 73.5934746,77.306541 73.7133128,75.1163939 C73.7553251,74.3298694 73.6774991,73.3153768 74.0714501,72.6011684 C74.3187025,72.1541856 75.4950457,72.1287027 75.9351413,72.0632738 C78.1032491,71.7361292 77.3862859,68.4102738 75.2236878,68.736041" id="Fill-264" fill="#FFFFFE"></path>
                <path d="M79.9531658,68.4419552 C77.7637074,68.3124748 77.5646658,71.7078915 79.7541241,71.8359944 C81.9442712,71.9647861 82.1419354,68.5700581 79.9531658,68.4419552" id="Fill-265" fill="#FFFFFE"></path>
                <path d="M43.206906,70.8077273 C38.9009942,70.4461464 35.9918177,73.4668964 35.4559893,77.5778988 C35.1811878,79.6819552 38.4333496,80.249465 38.7088398,78.1364552 C39.0084354,75.8326684 40.0663177,74.1390925 42.5360873,74.0605777 C45.2469109,73.9744871 46.4542467,76.0323988 45.903955,78.4808179 C45.4363104,80.5587027 48.6919158,81.1083057 49.1568055,79.0393743 C50.1065579,74.8174871 47.5493202,71.1699969 43.206906,70.8077273" id="Fill-266" fill="#214070"></path>
                <path d="M83.0193717,73.1025606 C78.703129,72.8649503 75.8821094,75.9669699 75.4654305,80.0903694 C75.2505481,82.2020018 78.5164844,82.6772224 78.7320555,80.558014 C78.9669109,78.2466513 79.9758937,76.5227714 82.4422197,76.3740067 C85.1482221,76.2107787 86.4140996,78.2335655 85.9340579,80.6964478 C85.5256437,82.7867297 88.7950236,83.242666 89.2006829,81.162715 C90.0299084,76.9139675 87.3700506,73.3422371 83.0193717,73.1025606" id="Fill-267" fill="#214070"></path>
                <path d="M67.3956339,90.3695974 C67.5540408,89.4825189 67.2668422,88.5954405 66.3253545,88.2951562 C65.5532932,88.0485925 64.4100089,88.4776684 64.2509133,89.3654356 C64.0236339,90.6423327 63.6117761,92.8600287 62.1082883,93.230563 C59.9801266,93.7539944 59.1805163,91.1671415 59.153656,89.5878939 C59.1171535,87.4721292 55.8188471,87.3226758 55.8560383,89.4563474 C55.9173349,92.9826219 57.7527883,96.3649527 61.6137834,96.5433327 C65.089781,96.7051831 66.8653153,93.3331831 67.3956339,90.3695974" id="Fill-268" fill="#214070"></path>
                <path d="M103.272033,21.6871366 C101.896649,18.7207959 100.021938,16.2806415 96.9819035,14.901813 C95.8985383,14.4107518 94.9515408,16.0141047 96.042482,16.5092983 C98.8256217,17.7710434 100.407624,19.9150459 101.665237,22.6265581 C102.169384,23.7154331 103.773426,22.7691243 103.272033,21.6871366" id="Fill-269" fill="#FFFFFE"></path>
                <path d="M103.708685,24.7009993 C102.508926,24.7009993 102.508926,26.5619356 103.708685,26.5619356 C104.909134,26.5619356 104.909134,24.7009993 103.708685,24.7009993" id="Fill-270" fill="#FFFFFE"></path>
                <path d="M35.0682369,9.87618314 C33.1645996,10.6186292 31.4159256,11.607639 29.99233,13.0939086 C28.5570261,14.5925753 27.6479084,16.4962126 26.9736462,18.4363523 C26.577629,19.5727493 28.3758913,20.0569233 28.7677761,18.9301684 C29.9702908,15.4748327 32.1218692,13.0105728 35.5613643,11.6710018 C36.6674574,11.2405483 36.1874158,9.44021991 35.0682369,9.87618314" id="Fill-271" fill="#FFFFFE"></path>
                <path d="M38.6640726,8.81967824 C37.4643128,8.81967824 37.4643128,10.6813032 38.6640726,10.6813032 C39.8645212,10.6813032 39.8645212,8.81967824 38.6640726,8.81967824" id="Fill-272" fill="#FFFFFE"></path>
                <path d="M7.77129077,47.3435385 C6.40417068,47.2698449 4.92203342,48.125242 4.3620996,49.3862983 C4.15617068,49.8498106 4.22297705,50.3821954 4.69613146,50.6597518 C5.0969697,50.8946072 5.76296724,50.7892322 5.96889617,50.3257199 C6.28433244,49.6156439 6.98958734,49.1631513 7.77129077,49.2044748 C8.97105058,49.2699037 8.96416332,47.40759 7.77129077,47.3435385" id="Fill-273" fill="#FFFFFE"></path>
                <path d="M122.939279,59.2881047 C121.232617,58.5945581 119.322092,58.592492 117.877146,59.8377077 C116.96734,60.622166 118.289693,61.9328106 119.193301,61.1531733 C120.114127,60.3604503 121.427526,60.669688 122.444085,61.0822346 C123.557065,61.5340385 124.035041,59.7337101 122.939279,59.2881047" id="Fill-275" fill="#FFFFFE"></path>
                <path d="M116.736617,61.8598057 C115.536168,61.8598057 115.536168,63.720742 116.736617,63.720742 C117.937065,63.720742 117.937065,61.8598057 116.736617,61.8598057" id="Fill-276" fill="#FFFFFE"></path>
                <path d="M113.695894,104.387916 C112.330151,103.852088 110.68272,104.2667 109.626215,105.246757 C108.746024,106.06634 110.064244,107.379051 110.943058,106.5636 C111.548448,106.000911 112.448612,105.887271 113.2007,106.182735 C114.319879,106.620075 114.799232,104.820436 113.695894,104.387916" id="Fill-277" fill="#FFFFFE"></path>
                <path d="M115.247592,106.27709 C114.047144,106.27709 114.047144,108.138715 115.247592,108.138715 C116.448041,108.138715 116.448041,106.27709 115.247592,106.27709" id="Fill-278" fill="#FFFFFE"></path>
                <path d="M44.7110824,41.7552199 C38.2432614,41.4997027 31.8567099,40.5175802 25.4915089,39.3908253 C24.3254967,39.1842077 23.752477,40.9569871 24.9295089,41.1656709 C31.4579378,42.3213523 38.0056511,43.3523743 44.6401437,43.6154675 C45.8392148,43.6629895 45.9094648,41.802742 44.7110824,41.7552199" id="Fill-279" fill="#FFFFFE"></path>
                <path d="M48.0631094,42.1326415 C46.8633496,42.1326415 46.8633496,43.9942665 48.0631094,43.9942665 C49.2635579,43.9942665 49.2635579,42.1326415 48.0631094,42.1326415" id="Fill-280" fill="#FFFFFE"></path>
                <path d="M22.19458,39.0623032 C20.9934427,39.0623032 20.9934427,40.9232395 22.19458,40.9232395 C23.3943398,40.9232395 23.3943398,39.0623032 22.19458,39.0623032" id="Fill-281" fill="#FFFFFE"></path>
                <path d="M91.7689403,102.804536 C90.5443864,105.755725 89.4176315,108.745482 88.2950089,111.737306 C87.8741976,112.863372 89.6724599,113.344791 90.0898275,112.231811 C91.2117614,109.239987 92.339205,106.25023 93.5630702,103.299041 C94.0238275,102.190882 92.2228104,101.712217 91.7689403,102.804536" id="Fill-282" fill="#FFFFFE"></path>
                <path d="M93.9067442,99.2679307 C92.7069844,99.2679307 92.7069844,101.128178 93.9067442,101.128178 C95.106504,101.128178 95.106504,99.2679307 93.9067442,99.2679307" id="Fill-283" fill="#FFFFFE"></path>
                <path d="M87.828053,114.651992 C86.6276045,114.651992 86.6276045,116.513617 87.828053,116.513617 C89.0278128,116.513617 89.0278128,114.651992 87.828053,114.651992" id="Fill-284" fill="#FFFFFE"></path>
                <path d="M52.808428,19.6140681 C51.6079795,19.6106292 51.6079795,21.4722542 52.808428,21.4750091 C53.3435677,21.4763866 53.8725089,21.4880949 54.3945628,21.6196415 C54.9097295,21.7498106 55.0764011,21.9729577 55.0419648,22.4984552 C54.9627614,23.6975263 56.8243864,23.6899503 56.9029011,22.4984552 C57.0599305,20.1168425 54.6858937,19.6182052 52.808428,19.6140681" id="Fill-285" fill="#FFFFFE"></path>
                <path d="M88.8260163,19.8861194 C87.0615016,18.514867 83.0531192,18.0203621 82.5269329,20.9481341 C82.3148055,22.1217224 84.1082467,22.6231145 84.3210628,21.442639 C84.5552295,20.1416366 86.7522638,20.6120361 87.5105506,21.2022738 C88.4472172,21.9288792 89.7737025,20.6216782 88.8260163,19.8861194" id="Fill-286" fill="#FFFFFE"></path>
            </g>
        </g>
    </g>
</svg>