<svg width="140" height="91" viewBox="0 0 140 91" fill="none" xmlns="http://www.w3.org/2000/svg">
<path d="M68.5823 50.3151C68.6051 49.9763 68.6278 49.6245 68.6504 49.2597C68.673 48.8949 68.6891 48.5301 68.6987 48.1654C68.7213 47.8006 68.7309 47.4424 68.7276 47.0909C68.7373 46.7392 68.7408 46.4202 68.7381 46.1337C68.7341 45.7171 68.6718 45.3205 68.551 44.944C68.4303 44.5675 68.2579 44.2436 68.034 43.9723C67.81 43.688 67.5279 43.4693 67.1879 43.3162C66.8608 43.15 66.4694 43.0691 66.0137 43.0734C65.8314 43.0751 65.6753 43.0896 65.5453 43.1169C65.4154 43.1442 65.2856 43.191 65.156 43.2573C65.0263 43.3106 64.8838 43.3836 64.7284 43.4762C64.5731 43.5818 64.392 43.7072 64.185 43.8524C64.1853 43.8785 64.1793 43.9306 64.167 44.0089C64.1676 44.074 64.168 44.113 64.1681 44.1261C64.1708 44.4125 64.2005 44.7963 64.2571 45.2776C64.3267 45.7457 64.3964 46.2399 64.4665 46.7601C64.5364 47.2672 64.6061 47.7614 64.6758 48.2425C64.7455 48.7237 64.7817 49.114 64.7845 49.4134C64.7848 49.4395 64.7853 49.4915 64.786 49.5697C64.7867 49.6478 64.781 49.7325 64.7689 49.8238C64.7697 49.9149 64.7705 49.9995 64.7713 50.0776C64.772 50.1558 64.7726 50.2144 64.7729 50.2534C64.6965 50.4364 64.6 50.5545 64.4833 50.6077C64.3795 50.6478 64.2495 50.6685 64.0933 50.67C63.9373 50.6975 63.819 50.588 63.7386 50.3413C63.6581 50.0947 63.5961 49.7372 63.5526 49.2688C63.5091 48.8005 63.4647 48.2344 63.4194 47.5708C63.3871 46.907 63.3346 46.1783 63.262 45.3847C63.2024 44.5909 63.1098 43.7519 62.9843 42.8677C62.8716 41.9702 62.7067 41.0538 62.4895 40.1183C62.3819 39.7547 62.2944 39.4495 62.2269 39.2028C62.1724 38.9429 62.1182 38.7155 62.0642 38.5207C62.0102 38.3129 61.9626 38.105 61.9216 37.897C61.8805 37.676 61.8324 37.4161 61.7775 37.1171L61.7768 37.039C61.7763 36.9869 61.8084 36.941 61.8731 36.9013C61.9377 36.8486 62.0089 36.8024 62.0867 36.7626C62.1774 36.7227 62.2618 36.6958 62.3398 36.6821C62.4307 36.6552 62.5022 36.6415 62.5543 36.641C62.8078 37.2896 63.0084 37.8412 63.1559 38.2955C63.3163 38.7367 63.4437 39.1197 63.5379 39.4443C63.6321 39.7689 63.6998 40.0418 63.7409 40.2627C63.7821 40.4837 63.8167 40.6982 63.8447 40.9063C63.8727 41.1144 63.8942 41.329 63.9094 41.5503C63.9245 41.7715 63.953 42.0381 63.9951 42.3503C64.6682 41.9272 65.278 41.6936 65.8244 41.6493C66.3839 41.605 66.8795 41.6849 67.3112 41.8892C67.7427 42.0804 68.1166 42.3829 68.4331 42.7966C68.7625 43.2102 69.0339 43.6764 69.2471 44.1952C69.4604 44.7141 69.6218 45.2659 69.7315 45.8509C69.8543 46.4357 69.9312 47.0014 69.9624 47.548C70.0067 48.0945 69.9984 48.6024 69.9378 49.0717C69.89 49.5279 69.8089 49.8998 69.6944 50.1874C69.5798 50.4619 69.425 50.6196 69.2301 50.6605C69.0353 50.7144 68.8194 50.5993 68.5823 50.3151ZM71.0674 46.6586C71.0606 45.9425 71.2109 45.316 71.5184 44.7792C71.8258 44.2425 72.2317 43.7894 72.736 43.42C73.2404 43.0506 73.8042 42.7784 74.4276 42.6032C75.0639 42.4149 75.701 42.3177 76.339 42.3117C76.6775 42.3085 76.9906 42.3706 77.2783 42.4981C77.5789 42.6125 77.8604 42.7791 78.1229 42.998C78.3983 43.2037 78.6415 43.4488 78.8525 43.7333C79.0635 44.0047 79.2419 44.2895 79.388 44.5876C79.5471 44.8856 79.6671 45.1905 79.7482 45.5022C79.8292 45.801 79.871 46.0936 79.8737 46.38C79.88 47.044 79.7554 47.6377 79.4999 48.161C79.2444 48.6842 78.8971 49.1302 78.4578 49.499C78.0185 49.8547 77.5198 50.1329 76.9617 50.3335C76.4036 50.5211 75.8316 50.6176 75.2457 50.6232C74.6467 50.6288 74.0925 50.5429 73.583 50.3654C73.0864 50.1748 72.6477 49.912 72.2669 49.5771C71.8991 49.242 71.6087 48.828 71.3957 48.3352C71.1826 47.8294 71.0731 47.2705 71.0674 46.6586ZM72.0229 46.4933C72.0267 46.8969 72.102 47.2869 72.2488 47.6631C72.4085 48.0262 72.6198 48.3432 72.8828 48.6142C73.1588 48.885 73.4799 49.1033 73.8461 49.2692C74.2121 49.4219 74.6035 49.4964 75.0201 49.4924C75.2417 49.5164 75.5083 49.4813 75.8199 49.3872C76.1445 49.28 76.4621 49.1337 76.7729 48.9485C77.0965 48.7501 77.4003 48.5194 77.6843 48.2563C77.9812 47.98 78.2258 47.6847 78.4182 47.3704C78.6104 47.043 78.7244 46.7099 78.7603 46.371C78.809 46.019 78.7472 45.6745 78.5747 45.3375C78.4152 44.9875 78.1191 44.6582 77.6864 44.3498C77.2537 44.0284 76.6584 43.7345 75.9007 43.4682C75.471 43.4723 75.0224 43.5416 74.5549 43.6763C74.1003 43.7978 73.6854 43.984 73.3102 44.2349C72.9349 44.4859 72.6254 44.8013 72.3816 45.1813C72.1378 45.5612 72.0182 45.9985 72.0229 46.4933ZM80.6092 43.5995C80.6218 43.5603 80.6409 43.5145 80.6665 43.4622C80.6919 43.3969 80.7238 43.3315 80.7623 43.266C80.8137 43.2004 80.8588 43.1479 80.8975 43.1085C80.9491 43.0559 81.0074 43.0293 81.0725 43.0287C81.0856 43.0285 81.0921 43.035 81.0923 43.048C81.0923 43.048 81.1053 43.0479 81.1313 43.0476L81.1704 43.0473C81.4712 43.1877 81.7206 43.3937 81.9184 43.6652C82.1162 43.9238 82.2883 44.2217 82.4347 44.5588C82.5942 44.8959 82.7408 45.2591 82.8747 45.6485C83.0085 46.0248 83.1553 46.4011 83.3151 46.7772C83.4878 47.1401 83.6865 47.4963 83.9112 47.8458C84.1359 48.1952 84.4187 48.5051 84.7599 48.7753C84.8733 48.3836 84.987 48.0049 85.1007 47.6392C85.2143 47.2605 85.3409 46.8817 85.4806 46.5028C85.6333 46.1237 85.8053 45.7314 85.9968 45.326C86.2013 44.9204 86.4316 44.482 86.6875 44.0108C86.9988 43.8776 87.2455 43.7972 87.4275 43.7694C87.6225 43.7415 87.7595 43.7663 87.8384 43.8436C87.9171 43.908 87.9311 44.012 87.8804 44.1558C87.8297 44.2995 87.7206 44.4698 87.5532 44.6667C87.4499 44.7588 87.3281 44.9683 87.188 45.2952C87.0609 45.6219 86.9213 46.0074 86.7692 46.4515C86.6172 46.8957 86.4523 47.3595 86.2745 47.843C86.1098 48.3263 85.9383 48.7707 85.7598 49.176C85.5812 49.5684 85.402 49.8956 85.2222 50.1577C85.0554 50.4197 84.8873 50.545 84.7179 50.5336C84.5356 50.5353 84.326 50.4006 84.089 50.1294C83.865 49.845 83.6207 49.4827 83.3561 49.0425C83.0915 48.6023 82.8265 48.123 82.5612 47.6046C82.2957 47.0733 82.0369 46.5484 81.7845 46.0299C81.5453 45.5113 81.3194 45.0381 81.107 44.6104C80.9075 44.1696 80.7416 43.8326 80.6092 43.5995ZM88.5938 45.2428C88.5874 44.5658 88.679 43.9203 88.8685 43.3065C89.0709 42.6796 89.3587 42.13 89.7318 41.6577C90.118 41.1852 90.5832 40.8097 91.1275 40.5311C91.6847 40.2394 92.3278 40.0901 93.0569 40.0832C93.4871 40.1312 93.8593 40.2449 94.1735 40.4242C94.5007 40.6034 94.7633 40.8288 94.9612 41.1004C95.172 41.3588 95.3246 41.6634 95.4191 42.0141C95.5004 42.3519 95.5429 42.7161 95.5466 43.1067C95.551 43.5754 95.4183 43.9998 95.1485 44.38C94.8786 44.7602 94.5366 45.0824 94.1224 45.3468C93.7081 45.5981 93.2607 45.7977 92.7803 45.9454C92.2998 46.0802 91.8512 46.1496 91.4346 46.1535C91.2783 46.155 91.1156 46.1565 90.9463 46.1581C90.7901 46.1596 90.6466 46.1349 90.5159 46.084C90.3852 46.0332 90.2803 45.9561 90.2012 45.8526C90.1221 45.7492 90.0816 45.5933 90.0796 45.385C90.079 45.3199 90.085 45.2678 90.0977 45.2286C90.1232 45.1763 90.1815 45.1432 90.2725 45.1293C90.3634 45.1024 90.5001 45.0946 90.6825 45.1059C90.865 45.1302 91.1127 45.1669 91.4257 45.216C91.608 45.2143 91.8679 45.1533 92.2053 45.0329C92.5556 44.8993 92.9056 44.7333 93.2553 44.5346C93.618 44.3359 93.9284 44.1116 94.1865 43.8617C94.4444 43.5989 94.5722 43.3438 94.5699 43.0964C94.5674 42.836 94.5194 42.5825 94.426 42.336C94.3454 42.0763 94.2195 41.8496 94.0484 41.6559C93.8773 41.4622 93.674 41.3079 93.4386 41.1929C93.2161 41.0778 92.9618 41.0347 92.6756 41.0634C92.2202 41.1068 91.8048 41.2344 91.4291 41.4463C91.0665 41.6581 90.7566 41.9345 90.4994 42.2754C90.2421 42.6034 90.0437 42.9699 89.9043 43.3749C89.7649 43.7798 89.6973 44.2037 89.7015 44.6464C89.7047 44.9849 89.7144 45.3234 89.7306 45.6618C89.7469 46.0002 89.7956 46.3318 89.8768 46.6565C89.971 46.9812 90.1107 47.2924 90.2958 47.5901C90.4939 47.8877 90.7699 48.1521 91.1236 48.3831C91.4903 48.601 91.9478 48.7855 92.4961 48.9365C93.0443 49.0746 93.7222 49.1593 94.5298 49.1908L98.0236 48.9233C97.818 49.2118 97.5533 49.4487 97.2295 49.634C96.9187 49.8193 96.5816 49.9722 96.2181 50.0928C95.8676 50.2003 95.5168 50.2817 95.1657 50.3372C94.8147 50.3926 94.4829 50.4217 94.1704 50.4247C93.4152 50.4318 92.7045 50.3148 92.0381 50.0737C91.3717 49.8326 90.7825 49.4931 90.2706 49.0553C89.7585 48.6043 89.3497 48.0613 89.0442 47.4262C88.7516 46.7778 88.6014 46.0501 88.5938 45.2428ZM100.733 50.3626C100.441 49.8445 100.188 49.2805 99.9744 48.6705C99.7603 48.0605 99.5787 47.4437 99.4295 46.8201C99.2804 46.1965 99.1575 45.5922 99.0608 45.0071C98.977 44.4089 98.9198 43.8691 98.8892 43.3876C98.8884 43.2964 98.8809 43.1988 98.8669 43.0948C98.8528 42.9777 98.8452 42.8606 98.8441 42.7434C98.856 42.6261 98.8745 42.5153 98.8995 42.4109C98.9376 42.3063 98.9953 42.2146 99.0727 42.1358L99.1118 42.1354C99.1248 42.1353 99.1313 42.1352 99.1313 42.1352C99.1312 42.1222 99.1376 42.1156 99.1507 42.1155C99.1637 42.1154 99.1702 42.1218 99.1704 42.1349C99.1704 42.1349 99.1834 42.1347 99.2094 42.1345L99.2485 42.1341C99.2747 42.1469 99.34 42.1723 99.4445 42.2104C99.5491 42.2485 99.6145 42.2804 99.6408 42.3062C99.8744 42.2259 100.114 42.1324 100.361 42.0259C100.607 41.9064 100.853 41.7999 101.1 41.7064C101.359 41.5998 101.619 41.5127 101.879 41.4452C102.139 41.3776 102.392 41.3426 102.64 41.3403C102.822 41.3386 102.978 41.3436 103.108 41.3554C103.252 41.3671 103.389 41.3918 103.519 41.4296C103.663 41.4543 103.813 41.492 103.97 41.5426C104.126 41.5802 104.309 41.6305 104.518 41.6937C104.623 41.7708 104.715 41.848 104.794 41.9254C104.885 41.9897 104.964 42.0671 105.03 42.1576C105.109 42.248 105.169 42.3581 105.209 42.4879C105.249 42.6178 105.271 42.7868 105.273 42.9952C105.064 43.0232 104.817 43.0125 104.53 42.9631C104.256 42.9006 103.962 42.8253 103.649 42.7371C103.349 42.6488 103.035 42.5736 102.709 42.5116C102.383 42.4495 102.07 42.4265 101.771 42.4423C101.472 42.4582 101.193 42.5454 100.934 42.7041C100.661 42.8369 100.423 43.0736 100.218 43.4141C100.13 43.7925 100.095 44.164 100.111 44.5284C100.127 44.8929 100.176 45.2505 100.258 45.6013C100.339 45.9391 100.44 46.2832 100.561 46.6336C100.694 46.9709 100.814 47.3149 100.922 47.6654C101.042 48.0028 101.15 48.3404 101.244 48.678C101.338 49.0157 101.4 49.3602 101.43 49.7115C101.431 49.8417 101.361 49.9856 101.219 50.1432C101.077 50.2878 100.915 50.3609 100.733 50.3626ZM126.116 49.439C126.115 49.3999 126.115 49.3479 126.114 49.2828C126.127 49.2175 126.132 49.1524 126.132 49.0873C126.131 49.0222 126.131 48.9636 126.13 48.9115L126.149 48.7941C126.148 48.7551 126.154 48.6443 126.165 48.4619C126.189 48.2794 126.214 48.0839 126.238 47.8753C126.262 47.6667 126.279 47.4712 126.291 47.2888C126.302 47.0934 126.307 46.9696 126.307 46.9176C126.278 46.6444 126.216 46.2869 126.121 45.8451C126.025 45.4032 125.878 44.9684 125.679 44.5406C125.492 44.1126 125.254 43.7438 124.965 43.434C124.676 43.1242 124.336 42.9712 123.945 42.9749C123.593 42.9782 123.223 43.0728 122.834 43.2588C122.458 43.4317 122.103 43.6629 121.767 43.9525C121.444 44.229 121.18 44.5506 120.975 44.9171C120.757 45.2707 120.65 45.6429 120.654 46.0335C120.655 46.2288 120.69 46.4238 120.757 46.6185C120.824 46.8001 120.89 46.9818 120.957 47.1635C121.037 47.345 121.11 47.5331 121.177 47.7278C121.244 47.9225 121.279 48.124 121.281 48.3323C121.282 48.4886 121.251 48.6451 121.188 48.802C121.137 48.9587 121.001 49.0381 120.78 49.0402C120.545 49.0424 120.349 48.9076 120.19 48.6356C120.044 48.3636 119.904 48.0198 119.77 47.6044C119.649 47.1758 119.514 46.7214 119.366 46.241C119.232 45.7604 119.058 45.3128 118.846 44.8982C118.646 44.4703 118.396 44.1211 118.094 43.8505C117.805 43.5798 117.432 43.4466 116.977 43.4509C116.625 43.4543 116.313 43.5353 116.041 43.6942C115.769 43.84 115.543 44.0374 115.363 44.2865C115.196 44.5355 115.062 44.8167 114.961 45.1302C114.873 45.4436 114.83 45.763 114.833 46.0885C114.838 46.6093 114.876 47.1233 114.946 47.6305C115.028 48.1245 115.072 48.6254 115.077 49.1332C115.079 49.3155 115.061 49.4849 115.023 49.6416C114.986 49.7851 114.856 49.858 114.635 49.8601C114.492 49.8614 114.368 49.8301 114.263 49.7659C114.171 49.6887 114.092 49.5983 114.026 49.4947C113.96 49.3782 113.906 49.255 113.866 49.1251C113.826 48.9823 113.792 48.8589 113.765 48.755C113.786 48.2209 113.781 47.7261 113.751 47.2707C113.734 46.8151 113.703 46.3857 113.661 45.9824C113.631 45.566 113.594 45.1497 113.551 44.7334C113.521 44.317 113.504 43.8744 113.499 43.4057C113.499 43.3796 113.499 43.3341 113.498 43.269C113.498 43.2039 113.497 43.1388 113.496 43.0737C113.509 42.9954 113.514 42.9303 113.514 42.8782C113.513 42.8131 113.513 42.7675 113.513 42.7415C113.525 42.7153 113.558 42.6824 113.609 42.6429C113.661 42.6033 113.693 42.5705 113.706 42.5443L113.804 42.5434C114.025 42.5413 114.189 42.6179 114.294 42.7731C114.4 42.9024 114.453 43.0711 114.455 43.2795C114.662 43.0561 114.842 42.8852 114.997 42.7665C115.165 42.6347 115.321 42.5356 115.463 42.4691C115.619 42.4025 115.775 42.362 115.931 42.3475C116.1 42.3329 116.302 42.3244 116.536 42.3222C116.914 42.3187 117.253 42.3545 117.553 42.4298C117.866 42.505 118.147 42.6195 118.396 42.7734C118.645 42.9143 118.874 43.1075 119.085 43.3529C119.296 43.5853 119.507 43.8567 119.718 44.1672C119.731 44.1671 119.744 44.1735 119.757 44.1864C119.783 44.1861 119.803 44.186 119.816 44.1858C119.829 44.1857 119.893 44.1265 120.009 44.0082C120.125 43.8769 120.28 43.7257 120.474 43.5546C120.667 43.3705 120.893 43.173 121.152 42.9622C121.41 42.7384 121.682 42.534 121.966 42.349C122.251 42.164 122.543 42.0115 122.841 41.8915C123.139 41.7585 123.432 41.6906 123.718 41.6879C124.161 41.6837 124.552 41.7712 124.892 41.9502C125.246 42.1292 125.561 42.3736 125.837 42.6835C126.113 42.9804 126.351 43.3232 126.55 43.712C126.749 44.0877 126.915 44.4833 127.049 44.8987C127.183 45.3011 127.278 45.7039 127.334 46.107C127.403 46.51 127.439 46.8808 127.442 47.2193C127.444 47.3495 127.439 47.5775 127.429 47.9031C127.432 48.2156 127.403 48.5414 127.341 48.8805C127.292 49.2065 127.204 49.5003 127.076 49.762C126.948 50.0106 126.767 50.136 126.532 50.1382C126.415 50.1393 126.33 50.1206 126.278 50.082C126.225 50.0304 126.186 49.9722 126.159 49.9074C126.132 49.8425 126.119 49.771 126.118 49.6929C126.117 49.6148 126.116 49.5302 126.116 49.439ZM128.338 44.867C128.332 44.19 128.423 43.5445 128.613 42.9307C128.815 42.3038 129.103 41.7542 129.476 41.2819C129.862 40.8094 130.328 40.4339 130.872 40.1553C131.429 39.8636 132.072 39.7143 132.801 39.7074C133.231 39.7554 133.604 39.8691 133.918 40.0484C134.245 40.2276 134.508 40.453 134.706 40.7246C134.916 40.983 135.069 41.2876 135.163 41.6383C135.245 41.9761 135.287 42.3403 135.291 42.7309C135.295 43.1996 135.163 43.624 134.893 44.0042C134.623 44.3844 134.281 44.7066 133.867 44.971C133.452 45.2223 133.005 45.4219 132.525 45.5696C132.044 45.7044 131.596 45.7738 131.179 45.7777C131.023 45.7792 130.86 45.7807 130.691 45.7823C130.534 45.7838 130.391 45.7591 130.26 45.7082C130.13 45.6574 130.025 45.5803 129.946 45.4768C129.866 45.3734 129.826 45.2175 129.824 45.0092C129.823 44.9441 129.829 44.892 129.842 44.8528C129.868 44.8005 129.926 44.7674 130.017 44.7535C130.108 44.7266 130.244 44.7188 130.427 44.7301C130.609 44.7544 130.857 44.7911 131.17 44.8402C131.352 44.8385 131.612 44.7775 131.95 44.6571C132.3 44.5235 132.65 44.3575 133 44.1588C133.362 43.9601 133.673 43.7358 133.931 43.4859C134.189 43.2231 134.317 42.968 134.314 42.7206C134.312 42.4602 134.264 42.2067 134.17 41.9602C134.09 41.7005 133.964 41.4738 133.793 41.2801C133.622 41.0864 133.418 40.9321 133.183 40.8171C132.96 40.702 132.706 40.6589 132.42 40.6876C131.965 40.731 131.549 40.8586 131.173 41.0705C130.811 41.2823 130.501 41.5587 130.244 41.8996C129.986 42.2276 129.788 42.5941 129.649 42.9991C129.509 43.404 129.442 43.8279 129.446 44.2706C129.449 44.6091 129.459 44.9476 129.475 45.286C129.491 45.6244 129.54 45.956 129.621 46.2807C129.715 46.6054 129.855 46.9166 130.04 47.2143C130.238 47.5119 130.514 47.7763 130.868 48.0073C131.235 48.2252 131.692 48.4097 132.24 48.5607C132.789 48.6988 133.467 48.7835 134.274 48.815L137.768 48.5475C137.562 48.836 137.298 49.0729 136.974 49.2582C136.663 49.4434 136.326 49.5964 135.962 49.717C135.612 49.8245 135.261 49.9059 134.91 49.9613C134.559 50.0168 134.227 50.0459 133.915 50.0489C133.16 50.056 132.449 49.939 131.782 49.6979C131.116 49.4568 130.527 49.1173 130.015 48.6795C129.503 48.2285 129.094 47.6855 128.788 47.0503C128.496 46.402 128.346 45.6743 128.338 44.867Z" fill="black"/>
<path d="M61.7062 25.0888C61.6354 24.1589 62.1555 9.40171 59.7275 9.25888C56.6716 9.07913 53.8262 10.2483 50.7682 10.2483C41.0245 10.2483 31.1051 8.60549 21.362 8.26953C16.3876 8.098 16.1954 6.72932 16.1954 12.3369C16.1954 29.5955 17.0491 46.7752 17.1847 64.0039C17.2238 68.9673 18.1741 73.7849 18.1741 78.7344C18.1741 80.4406 19.09 84.414 17.6244 81.4827C16.4793 79.1924 12.8131 72.2114 13.0074 72.5784C13.5465 73.5968 17.1464 83.5094 19.1634 80.988C21.2354 78.3979 23.6491 75.4794 25.0996 72.5784" stroke="#1C1C1C" stroke-width="1.09" stroke-linecap="round"/>
</svg>
