<svg width="50" height="50" viewBox="0 0 50 50" fill="none" xmlns="http://www.w3.org/2000/svg">
<path fill-rule="evenodd" clip-rule="evenodd" d="M29.8856 5.78073C29.8856 4.79726 29.0946 4 28.1189 4C27.1432 4 26.3522 4.79726 26.3522 5.78073V6.6711H25.4688C24.4931 6.6711 23.7021 7.46836 23.7021 8.45183C23.7021 9.43531 24.4931 10.2326 25.4688 10.2326H26.3522V11.1229C26.3522 12.1064 27.1432 12.9037 28.1189 12.9037C29.0946 12.9037 29.8856 12.1064 29.8856 11.1229V10.2326H30.769C31.7447 10.2326 32.5357 9.43531 32.5357 8.45183C32.5357 7.46836 31.7447 6.6711 30.769 6.6711H29.8856V5.78073ZM26.7135 21.8073C25.3336 20.4165 23.0964 20.4165 21.7165 21.8073L18.036 25.517L6.03492 37.6133C4.65503 39.0042 4.65503 41.2592 6.03492 42.65L8.32364 44.9569C9.70353 46.3477 11.9408 46.3477 13.3207 44.9569L25.3218 32.8605L29.0022 29.1509C30.3821 27.76 30.3821 25.5051 29.0022 24.1142L26.7135 21.8073ZM24.0725 29.083L21.7838 26.7762L24.215 24.3257L26.5037 26.6325L24.0725 29.083ZM19.2853 29.2945L21.574 31.6014L10.8222 42.4385L8.53343 40.1317L19.2853 29.2945ZM37.8358 30.711C38.8116 30.711 39.6026 31.5083 39.6026 32.4917C40.5783 32.4917 41.3693 33.289 41.3693 34.2725C41.3693 35.2559 40.5783 36.0532 39.6026 36.0532C39.6026 37.0367 38.8116 37.8339 37.8358 37.8339C36.8601 37.8339 36.0691 37.0367 36.0691 36.0532C35.0934 36.0532 34.3024 35.2559 34.3024 34.2725C34.3024 33.289 35.0934 32.4917 36.0691 32.4917C36.0691 31.5083 36.8601 30.711 37.8358 30.711ZM41.2176 12.0132C40.5276 11.3177 39.409 11.3177 38.7191 12.0132C38.0291 12.7086 38.0291 13.8361 38.7191 14.5315L39.6023 15.4217L38.7191 16.312C38.0291 17.0074 38.0291 18.1349 38.7191 18.8303C39.409 19.5257 40.5276 19.5257 41.2176 18.8303L42.1008 17.9401L42.984 18.8303C43.674 19.5257 44.7926 19.5257 45.4825 18.8303C46.1725 18.1349 46.1725 17.0074 45.4825 16.312L44.5993 15.4217L45.4825 14.5315C46.1725 13.8361 46.1725 12.7086 45.4825 12.0132C44.7926 11.3177 43.674 11.3177 42.984 12.0132L42.1008 12.9034L41.2176 12.0132Z" fill="#F58A07"/>
</svg>
