<svg width="50" height="50" viewBox="0 0 50 50" fill="none" xmlns="http://www.w3.org/2000/svg">
<path fill-rule="evenodd" clip-rule="evenodd" d="M24.2455 8.30209C25.0352 7.8993 25.9648 7.8993 26.7545 8.30209L40.4493 15.2869C42.5169 16.3414 42.5169 19.3512 40.4493 20.4057L38.4544 21.4232L40.4493 22.4406C42.5169 23.4951 42.5169 26.5049 40.4493 27.5594L38.4544 28.5769L40.4493 29.5943C42.5169 30.6488 42.5169 33.6586 40.4493 34.7131L26.7545 41.6979C25.9648 42.1007 25.0352 42.1007 24.2455 41.6979L10.5507 34.7131C8.48311 33.6586 8.48311 30.6488 10.5507 29.5943L12.5456 28.5769L10.5507 27.5594C8.48311 26.5049 8.48311 23.4951 10.5507 22.4406L12.5456 21.4232L10.5507 20.4057C8.48311 19.3512 8.48311 16.3414 10.5507 15.2869L24.2455 8.30209ZM16.3238 20.1509C16.3147 20.1462 16.3055 20.1415 16.2964 20.137L11.8052 17.8463L25.5 10.8615L39.1948 17.8463L34.7034 20.1371C34.6944 20.1416 34.6854 20.1461 34.6764 20.1508L25.5 24.8311L16.3238 20.1509ZM15.6819 23.0228L11.8052 25L16.2962 27.2906L16.324 27.3047L25.5 31.9848L34.6764 27.3046L34.7035 27.2907L39.1948 25L35.3181 23.0228L26.7545 27.3905C25.9648 27.7933 25.0352 27.7933 24.2455 27.3905L15.6819 23.0228ZM11.8052 32.1537L15.6819 30.1765L24.2455 34.5442C25.0352 34.947 25.9648 34.947 26.7545 34.5442L35.3181 30.1765L39.1948 32.1537L25.5 39.1385L11.8052 32.1537Z" fill="#F58A07"/>
</svg>
