<svg width="50" height="50" viewBox="0 0 50 50" fill="none" xmlns="http://www.w3.org/2000/svg">
<path fill-rule="evenodd" clip-rule="evenodd" d="M37.2678 13.2687C40.4609 15.6262 40.9122 20.0463 38.2556 22.9421L25.0001 37.3913L11.7448 22.9437C9.08767 20.0476 9.53898 15.6268 12.7324 13.2691C16.0009 10.8561 20.7458 11.6258 22.9849 14.9323L23.736 16.0415C24.1857 16.7056 25.1174 16.8979 25.8169 16.4709C26.036 16.3372 26.2063 16.1586 26.3231 15.9559L27.0156 14.9328C29.2541 11.6258 33.9993 10.8556 37.2678 13.2687ZM25.0004 12.6906C21.6348 8.56601 15.3105 7.74393 10.8838 11.0122C6.32546 14.3776 5.68126 20.6877 9.47398 24.8215L23.8672 40.5094C24.4134 41.1047 25.3645 41.167 25.9916 40.6484C26.0731 40.581 26.1451 40.5071 26.2075 40.4283L40.5265 24.8199C44.3186 20.6863 43.6744 14.3769 39.1165 11.0118C34.6898 7.74356 28.3655 8.56594 25.0004 12.6906Z" fill="#F58A07" stroke="#F58A07" stroke-width="2" stroke-linecap="round" stroke-linejoin="round"/>
</svg>
