<svg width="26" height="26" viewBox="0 0 26 26" fill="none" xmlns="http://www.w3.org/2000/svg">
<g clip-path="url(#clip0_311_17)">
<path d="M17.5562 4.66675H8.66327C6.20755 4.66675 4.2168 6.53223 4.2168 8.83342V17.1667C4.2168 19.4679 6.20755 21.3334 8.66327 21.3334H17.5562C20.0119 21.3334 22.0027 19.4679 22.0027 17.1667V8.83342C22.0027 6.53223 20.0119 4.66675 17.5562 4.66675Z" stroke="white" stroke-width="2" stroke-linecap="round" stroke-linejoin="round"/>
<path d="M16.6667 12.475C16.7765 13.1685 16.65 13.8769 16.3054 14.4992C15.9608 15.1215 15.4156 15.6262 14.7473 15.9414C14.079 16.2566 13.3216 16.3663 12.5829 16.2549C11.8442 16.1436 11.1618 15.8167 10.6327 15.321C10.1036 14.8252 9.75487 14.1857 9.636 13.4935C9.51713 12.8013 9.63422 12.0916 9.97061 11.4653C10.307 10.8391 10.8455 10.3281 11.5097 10.0052C12.1738 9.68229 12.9297 9.56383 13.6698 9.66667C14.4247 9.77158 15.1236 10.1012 15.6633 10.6069C16.203 11.1126 16.5548 11.7676 16.6667 12.475Z" stroke="white" stroke-width="2" stroke-linecap="round" stroke-linejoin="round"/>
<path d="M18.001 8.41675H18.0106" stroke="white" stroke-width="2" stroke-linecap="round" stroke-linejoin="round"/>
</g>
<defs>
<clipPath id="clip0_311_17">
<rect width="21.3431" height="20" fill="white" transform="translate(2.43848 3)"/>
</clipPath>
</defs>
</svg>
