<svg width="26" height="26" viewBox="0 0 26 26" fill="none" xmlns="http://www.w3.org/2000/svg">
<path d="M23.1114 5.50008C22.2598 6.06298 21.3169 6.4935 20.319 6.77508C19.7834 6.198 19.0716 5.78899 18.2798 5.60335C17.4881 5.41771 16.6546 5.46441 15.8921 5.73712C15.1296 6.00984 14.4749 6.49541 14.0165 7.12818C13.5581 7.76094 13.3182 8.51036 13.3291 9.27508V10.1084C11.7663 10.1464 10.2177 9.82159 8.82129 9.16295C7.42486 8.50431 6.22393 7.53228 5.32546 6.33341C5.32546 6.33341 1.76829 13.8334 9.77194 17.1667C7.94046 18.3317 5.75869 18.9159 3.54688 18.8334C11.5505 23.0001 21.3328 18.8334 21.3328 9.25008C21.3319 9.01796 21.3081 8.78641 21.2616 8.55841C22.1692 7.71966 22.8097 6.66067 23.1114 5.50008Z" fill="white"/>
</svg>
