<svg width="26" height="26" viewBox="0 0 26 26" fill="none" xmlns="http://www.w3.org/2000/svg">
<path fill-rule="evenodd" clip-rule="evenodd" d="M21.6396 7.29942C21.9425 7.59206 22.1577 7.95443 22.2633 8.34992C22.5454 9.8155 22.6824 11.3024 22.6724 12.7916C22.678 14.2585 22.5411 15.7229 22.2633 17.1666C22.1577 17.5621 21.9425 17.9244 21.6396 18.2171C21.3367 18.5097 20.9567 18.7223 20.5381 18.8333C19.0085 19.2166 12.8902 19.2166 12.8902 19.2166C12.8902 19.2166 6.77182 19.2166 5.24224 18.8333C4.83211 18.7281 4.45786 18.5256 4.15565 18.2453C3.85343 17.965 3.63347 17.6165 3.51701 17.2333C3.23489 15.7677 3.09795 14.2808 3.10793 12.7916C3.10014 11.3135 3.23707 9.83788 3.51701 8.38325C3.62264 7.98776 3.83779 7.6254 4.14071 7.33276C4.44363 7.04012 4.8236 6.82757 5.24224 6.71659C6.77182 6.33325 12.8902 6.33325 12.8902 6.33325C12.8902 6.33325 19.0085 6.33325 20.5381 6.68325C20.9567 6.79424 21.3367 7.00679 21.6396 7.29942ZM16.0031 12.7916L10.8896 15.5166V10.0666L16.0031 12.7916Z" fill="white"/>
</svg>
